<svg width="187" height="126" viewBox="0 0 187 126" fill="none" xmlns="http://www.w3.org/2000/svg">
<rect x="35.6182" y="43.9497" width="106.631" height="44.1635" rx="22.0818" fill="url(#paint0_linear_868_53)"/>
<g filter="url(#filter0_d_868_53)">
<path d="M151.735 52.0497C151.735 68.1594 141.31 82.0507 126.36 87.2183C122.914 88.3119 119.48 88.1131 115.672 88.1131C95.7547 88.1131 79.6086 71.967 79.6086 52.0497C79.6086 32.1325 95.7547 15.9863 115.672 15.9863C135.589 15.9863 151.735 32.1325 151.735 52.0497Z" fill="#D9D9D9"/>
<path d="M151.735 52.0497C151.735 68.1594 141.31 82.0507 126.36 87.2183C122.914 88.3119 119.48 88.1131 115.672 88.1131C95.7547 88.1131 79.6086 71.967 79.6086 52.0497C79.6086 32.1325 95.7547 15.9863 115.672 15.9863C135.589 15.9863 151.735 32.1325 151.735 52.0497Z" fill="url(#paint1_linear_868_53)"/>
<path d="M55.812 88.1179C55.812 88.1179 70.0575 86.3921 75.4425 80.1015C80.3043 74.4221 80.624 60.5827 80.624 60.5827L115.819 88.1179H55.812Z" fill="#D9D9D9"/>
<path d="M55.812 88.1179C55.812 88.1179 70.0575 86.3921 75.4425 80.1015C80.3043 74.4221 80.624 60.5827 80.624 60.5827L115.819 88.1179H55.812Z" fill="url(#paint2_linear_868_53)"/>
</g>
<path d="M10.3232 125.211C8.96241 125.211 7.73358 124.397 7.20279 123.144L1.98417 110.825C1.42259 109.499 2.39569 108.03 3.83545 108.03V108.03C4.65022 108.03 5.38444 108.522 5.6946 109.275L11.0282 122.232C11.2151 122.686 10.8812 123.184 10.39 123.184V123.184C9.89395 123.184 9.55993 122.677 9.75638 122.221L15.1087 109.81C15.5746 108.73 16.6384 108.03 17.8149 108.03V108.03C19.0025 108.03 20.074 108.743 20.533 109.838L25.7314 122.245C25.9185 122.691 25.5905 123.184 25.1063 123.184V123.184C24.6208 123.184 24.2928 122.689 24.4822 122.242L30.017 109.186C30.314 108.485 31.001 108.03 31.7619 108.03V108.03C33.1205 108.03 34.0378 109.418 33.5056 110.668L28.1886 123.156C27.6579 124.402 26.434 125.211 25.0793 125.211V125.211C23.7307 125.211 22.5112 124.41 21.9767 123.171L17.3359 112.423C17.2076 112.126 17.4254 111.795 17.749 111.795V111.795C18.0739 111.795 18.2917 112.128 18.1608 112.426L13.425 123.187C12.8838 124.417 11.667 125.211 10.3232 125.211V125.211Z" fill="white"/>
<path d="M46.5965 125.437C44.3933 125.437 42.4624 125.061 40.8038 124.31C39.1699 123.538 37.895 122.487 36.979 121.157C36.0878 119.827 35.6422 118.315 35.6422 116.621C35.6422 114.905 36.0755 113.393 36.9419 112.084C37.8331 110.754 39.0461 109.714 40.5809 108.963C42.1405 108.213 43.9106 107.837 45.891 107.837C47.8219 107.837 49.5424 108.202 51.0525 108.931C52.5626 109.66 53.7509 110.69 54.6173 112.02C55.4837 113.35 55.917 114.916 55.917 116.717C55.917 116.889 55.9046 117.082 55.8798 117.296V117.296C55.8798 117.647 55.5802 117.908 55.2298 117.908H40.6537C39.9162 117.908 39.3184 117.31 39.3184 116.572V116.572C39.3184 115.835 39.9162 115.237 40.6537 115.237H51.9097C52.2578 115.237 52.3615 115.711 52.0452 115.856V115.856C51.8271 115.957 51.578 115.793 51.5606 115.554C51.5043 114.779 51.273 114.084 50.8668 113.468C50.3717 112.717 49.691 112.127 48.8245 111.698C47.9828 111.269 47.005 111.055 45.891 111.055C44.7522 111.055 43.7496 111.269 42.8832 111.698C42.0415 112.127 41.3731 112.728 40.878 113.5C40.4077 114.251 40.1725 115.141 40.1725 116.17V116.814C40.1725 117.843 40.4448 118.755 40.9894 119.549C41.534 120.342 42.3015 120.954 43.2917 121.383C44.2819 121.812 45.4206 122.026 46.7079 122.026C47.8219 122.026 48.8245 121.876 49.7157 121.576C50.0556 121.461 50.381 121.322 50.6921 121.157C51.5433 120.707 52.6315 120.697 53.3138 121.376V121.376C54.0139 122.073 54.0232 123.223 53.192 123.757C52.5962 124.14 51.9326 124.464 51.201 124.729C49.8642 125.201 48.3294 125.437 46.5965 125.437Z" fill="white"/>
<path d="M71.367 125.437C69.6836 125.437 68.1859 125.115 66.8739 124.471C65.5618 123.828 64.5221 122.863 63.7547 121.576C63.012 120.267 62.6407 118.616 62.6407 116.621C62.6407 114.604 63.0244 112.953 63.7918 111.666C64.584 110.379 65.6361 109.424 66.9481 108.802C68.2849 108.159 69.7579 107.837 71.367 107.837C73.3226 107.837 75.0432 108.202 76.5285 108.931C78.0386 109.66 79.2268 110.679 80.0933 111.988C80.9845 113.296 81.4301 114.84 81.4301 116.621C81.4301 118.401 80.9845 119.945 80.0933 121.254C79.2268 122.562 78.0386 123.592 76.5285 124.343C75.0432 125.072 73.3226 125.437 71.367 125.437ZM62.585 125.211C61.3647 125.211 60.3755 124.222 60.3755 123.002V103.659C60.3755 102.377 61.4146 101.338 62.6964 101.338V101.338C63.9781 101.338 65.0172 102.377 65.0172 103.659V112.02L64.6459 116.589L64.7944 121.157V123.002C64.7944 124.222 63.8052 125.211 62.585 125.211V125.211ZM70.8471 121.994C71.9611 121.994 72.9513 121.779 73.8178 121.35C74.709 120.921 75.4145 120.299 75.9343 119.484C76.4542 118.669 76.7141 117.715 76.7141 116.621C76.7141 115.505 76.4542 114.551 75.9343 113.757C75.4145 112.942 74.709 112.32 73.8178 111.891C72.9513 111.462 71.9611 111.248 70.8471 111.248C69.7331 111.248 68.7305 111.462 67.8393 111.891C66.9481 112.32 66.2426 112.942 65.7227 113.757C65.2029 114.551 64.9429 115.505 64.9429 116.621C64.9429 117.715 65.2029 118.669 65.7227 119.484C66.2426 120.299 66.9481 120.921 67.8393 121.35C68.7305 121.779 69.7331 121.994 70.8471 121.994Z" fill="white"/>
<path d="M94.9297 125.437C92.8503 125.437 90.9936 125.061 89.3597 124.31C87.7506 123.538 86.4881 122.487 85.5721 121.157C84.6562 119.827 84.1982 118.315 84.1982 116.621C84.1982 114.905 84.6562 113.393 85.5721 112.084C86.4881 110.754 87.7506 109.714 89.3597 108.963C90.9936 108.213 92.8503 107.837 94.9297 107.837C96.8606 107.837 98.5564 108.18 100.017 108.867C100.766 109.202 101.424 109.62 101.991 110.119C102.894 110.915 102.488 112.286 101.414 112.829V112.829C100.501 113.29 99.4157 112.975 98.5885 112.374C98.293 112.159 97.977 111.977 97.6404 111.827C96.7987 111.441 95.8828 111.248 94.8926 111.248C93.7538 111.248 92.7265 111.462 91.8105 111.891C90.8946 112.32 90.1767 112.942 89.6568 113.757C89.1369 114.551 88.877 115.505 88.877 116.621C88.877 117.736 89.1369 118.701 89.6568 119.516C90.1767 120.31 90.8946 120.921 91.8105 121.35C92.7265 121.779 93.7538 121.994 94.8926 121.994C95.8828 121.994 96.7987 121.801 97.6404 121.415C97.9792 121.264 98.2971 121.08 98.5943 120.864C99.4173 120.264 100.499 119.95 101.408 120.41V120.41C102.483 120.953 102.882 122.325 101.98 123.124C101.416 123.624 100.762 124.052 100.017 124.407C98.5564 125.093 96.8606 125.437 94.9297 125.437Z" fill="white"/>
<path d="M109.548 125.211C108.266 125.211 107.227 124.172 107.227 122.891V103.659C107.227 102.377 108.266 101.338 109.548 101.338V101.338C110.83 101.338 111.869 102.377 111.869 103.659V122.891C111.869 124.172 110.83 125.211 109.548 125.211V125.211Z" fill="white"/>
<path d="M126.873 125.437C124.843 125.437 123.036 125.061 121.452 124.31C119.867 123.538 118.617 122.487 117.701 121.157C116.785 119.827 116.327 118.315 116.327 116.621C116.327 114.905 116.785 113.393 117.701 112.084C118.617 110.754 119.867 109.714 121.452 108.963C123.036 108.213 124.843 107.837 126.873 107.837C128.928 107.837 130.747 108.213 132.332 108.963C133.941 109.714 135.191 110.744 136.082 112.052C136.998 113.36 137.456 114.883 137.456 116.621C137.456 118.315 136.998 119.827 136.082 121.157C135.191 122.487 133.941 123.538 132.332 124.31C130.747 125.061 128.928 125.437 126.873 125.437ZM126.873 121.994C128.012 121.994 129.027 121.779 129.918 121.35C130.809 120.921 131.502 120.299 131.997 119.484C132.517 118.669 132.777 117.715 132.777 116.621C132.777 115.505 132.517 114.551 131.997 113.757C131.502 112.942 130.809 112.32 129.918 111.891C129.027 111.462 128.024 111.248 126.91 111.248C125.771 111.248 124.756 111.462 123.865 111.891C122.999 112.32 122.306 112.942 121.786 113.757C121.266 114.551 121.006 115.505 121.006 116.621C121.006 117.715 121.266 118.669 121.786 119.484C122.306 120.299 122.999 120.921 123.865 121.35C124.756 121.779 125.759 121.994 126.873 121.994Z" fill="white"/>
<path d="M150.287 125.437C148.603 125.437 147.118 125.168 145.831 124.632C144.543 124.075 143.541 123.238 142.823 122.123C142.105 120.986 141.746 119.559 141.746 117.843V110.351C141.746 109.069 142.785 108.03 144.067 108.03V108.03C145.349 108.03 146.388 109.069 146.388 110.351V117.296C146.388 118.841 146.784 119.999 147.576 120.771C148.393 121.522 149.544 121.897 151.029 121.897C152.118 121.897 153.059 121.704 153.851 121.318C154.668 120.932 155.3 120.353 155.745 119.581C156.216 118.809 156.451 117.854 156.451 116.717V110.351C156.451 109.069 157.49 108.03 158.772 108.03V108.03C160.053 108.03 161.092 109.069 161.092 110.351V123.002C161.092 124.222 160.103 125.211 158.883 125.211H157.621C157.098 125.211 156.673 124.787 156.673 124.263V121.986C156.673 121.612 157.172 121.484 157.353 121.812V121.812C157.415 121.924 157.413 122.062 157.343 122.171C156.679 123.2 155.738 123.999 154.52 124.568C153.232 125.147 151.821 125.437 150.287 125.437Z" fill="white"/>
<path d="M175.562 125.437C173.656 125.437 171.935 125.072 170.4 124.343C168.89 123.592 167.702 122.562 166.836 121.254C165.969 119.945 165.536 118.401 165.536 116.621C165.536 114.84 165.969 113.296 166.836 111.988C167.702 110.679 168.89 109.66 170.4 108.931C171.935 108.202 173.656 107.837 175.562 107.837C177.22 107.837 178.706 108.159 180.018 108.802C181.33 109.424 182.37 110.379 183.137 111.666C183.904 112.953 184.288 114.604 184.288 116.621C184.288 118.616 183.917 120.267 183.174 121.576C182.431 122.863 181.404 123.828 180.092 124.471C178.78 125.115 177.27 125.437 175.562 125.437ZM176.119 121.994C177.233 121.994 178.223 121.779 179.089 121.35C179.981 120.921 180.686 120.299 181.206 119.484C181.751 118.669 182.023 117.715 182.023 116.621C182.023 115.505 181.751 114.551 181.206 113.757C180.686 112.942 179.981 112.32 179.089 111.891C178.223 111.462 177.233 111.248 176.119 111.248C175.005 111.248 174.002 111.462 173.111 111.891C172.245 112.32 171.539 112.942 170.994 113.757C170.475 114.551 170.215 115.505 170.215 116.621C170.215 117.715 170.475 118.669 170.994 119.484C171.539 120.299 172.245 120.921 173.111 121.35C174.002 121.779 175.005 121.994 176.119 121.994ZM184.344 125.211C183.124 125.211 182.134 124.222 182.134 123.002V121.157L182.32 116.589L181.949 112.02V103.64C181.949 102.369 182.979 101.338 184.251 101.338V101.338C185.522 101.338 186.553 102.369 186.553 103.64V123.002C186.553 124.222 185.564 125.211 184.344 125.211V125.211Z" fill="white"/>
<defs>
<filter id="filter0_d_868_53" x="36.712" y="0.886328" width="134.123" height="110.341" filterUnits="userSpaceOnUse" color-interpolation-filters="sRGB">
<feFlood flood-opacity="0" result="BackgroundImageFix"/>
<feColorMatrix in="SourceAlpha" type="matrix" values="0 0 0 0 0 0 0 0 0 0 0 0 0 0 0 0 0 0 127 0" result="hardAlpha"/>
<feOffset dy="4"/>
<feGaussianBlur stdDeviation="9.55"/>
<feComposite in2="hardAlpha" operator="out"/>
<feColorMatrix type="matrix" values="0 0 0 0 0 0 0 0 0 0 0 0 0 0 0 0 0 0 0.25 0"/>
<feBlend mode="normal" in2="BackgroundImageFix" result="effect1_dropShadow_868_53"/>
<feBlend mode="normal" in="SourceGraphic" in2="effect1_dropShadow_868_53" result="shape"/>
</filter>
<linearGradient id="paint0_linear_868_53" x1="36.9094" y1="82.0734" x2="39.7356" y2="27.5261" gradientUnits="userSpaceOnUse">
<stop stop-color="#525AFF"/>
<stop offset="0.48" stop-color="#7177F8"/>
<stop offset="1" stop-color="#525AFF"/>
</linearGradient>
<linearGradient id="paint1_linear_868_53" x1="105.105" y1="45.4096" x2="98.7322" y2="89.2589" gradientUnits="userSpaceOnUse">
<stop stop-color="#7177F8"/>
<stop offset="0.928821" stop-color="#525AFF"/>
</linearGradient>
<linearGradient id="paint2_linear_868_53" x1="105.105" y1="45.4096" x2="98.7322" y2="89.2589" gradientUnits="userSpaceOnUse">
<stop stop-color="#7177F8"/>
<stop offset="0.928821" stop-color="#525AFF"/>
</linearGradient>
</defs>
</svg>
