<svg width="192" height="18" viewBox="0 0 192 18" fill="none" xmlns="http://www.w3.org/2000/svg">
<path d="M186.649 17.6167C185.913 17.6167 185.249 17.452 184.658 17.1226C184.067 16.7834 183.597 16.3135 183.248 15.7127C182.909 15.1119 182.739 14.4046 182.739 13.5907C182.739 12.767 182.909 12.0548 183.248 11.4541C183.597 10.8533 184.067 10.3882 184.658 10.0588C185.249 9.72932 185.913 9.56459 186.649 9.56459C187.308 9.56459 187.884 9.70994 188.379 10.0006C188.873 10.2913 189.256 10.7322 189.527 11.3233C189.798 11.9143 189.934 12.6701 189.934 13.5907C189.934 14.5015 189.803 15.2573 189.541 15.8581C189.28 16.4491 188.902 16.89 188.408 17.1807C187.923 17.4714 187.337 17.6167 186.649 17.6167ZM187.041 15.7563C187.41 15.7563 187.744 15.6691 188.044 15.4947C188.345 15.3203 188.582 15.0732 188.757 14.7534C188.941 14.424 189.033 14.0364 189.033 13.5907C189.033 13.1352 188.941 12.7477 188.757 12.4279C188.582 12.1081 188.345 11.8611 188.044 11.6866C187.744 11.5122 187.41 11.425 187.041 11.425C186.664 11.425 186.324 11.5122 186.024 11.6866C185.724 11.8611 185.481 12.1081 185.297 12.4279C185.123 12.7477 185.036 13.1352 185.036 13.5907C185.036 14.0364 185.123 14.424 185.297 14.7534C185.481 15.0732 185.724 15.3203 186.024 15.4947C186.324 15.6691 186.664 15.7563 187.041 15.7563ZM190.174 17.5005C189.576 17.5005 189.091 17.0157 189.091 16.4176V15.9017L189.134 13.5761L188.989 11.2651V7.84952C188.989 7.22339 189.497 6.71582 190.123 6.71582V6.71582C190.749 6.71582 191.257 7.22339 191.257 7.84952V16.4176C191.257 17.0157 190.772 17.5005 190.174 17.5005V17.5005Z" fill="#7177F8"/>
<path d="M176.612 17.617C175.963 17.617 175.382 17.4911 174.868 17.2391C174.364 16.9872 173.972 16.6044 173.691 16.0909C173.41 15.5676 173.27 14.9039 173.27 14.0997V10.8148C173.27 10.1887 173.777 9.68115 174.403 9.68115V9.68115C175.029 9.68115 175.537 10.1887 175.537 10.8148V13.7654C175.537 14.4146 175.673 14.8942 175.944 15.2043C176.225 15.5047 176.617 15.6549 177.121 15.6549C177.47 15.6549 177.78 15.5822 178.051 15.4368C178.323 15.2818 178.536 15.0492 178.691 14.7392C178.846 14.4194 178.923 14.0221 178.923 13.5473V10.8148C178.923 10.1887 179.431 9.68115 180.057 9.68115V9.68115C180.683 9.68115 181.191 10.1887 181.191 10.8148V16.4252C181.191 17.0192 180.709 17.5007 180.115 17.5007H179.521C179.255 17.5007 179.04 17.2854 179.04 17.0198V15.9863C179.04 15.8023 179.28 15.733 179.378 15.8888V15.8888C179.412 15.9422 179.416 16.0093 179.387 16.0652C179.126 16.5633 178.754 16.9449 178.269 17.2101C177.766 17.4814 177.213 17.617 176.612 17.617Z" fill="#7177F8"/>
<path d="M167.509 17.6166C166.676 17.6166 165.935 17.4422 165.285 17.0934C164.646 16.7445 164.137 16.2697 163.759 15.669C163.391 15.0585 163.207 14.3657 163.207 13.5905C163.207 12.8057 163.391 12.1128 163.759 11.5121C164.137 10.9016 164.646 10.4268 165.285 10.0877C165.935 9.73887 166.676 9.56445 167.509 9.56445C168.333 9.56445 169.069 9.73887 169.719 10.0877C170.368 10.4268 170.876 10.8968 171.245 11.4975C171.613 12.0983 171.797 12.796 171.797 13.5905C171.797 14.3657 171.613 15.0585 171.245 15.669C170.876 16.2697 170.368 16.7445 169.719 17.0934C169.069 17.4422 168.333 17.6166 167.509 17.6166ZM167.509 15.7562C167.887 15.7562 168.226 15.669 168.527 15.4946C168.827 15.3201 169.064 15.073 169.239 14.7533C169.413 14.4238 169.5 14.0363 169.5 13.5905C169.5 13.1351 169.413 12.7475 169.239 12.4278C169.064 12.108 168.827 11.8609 168.527 11.6865C168.226 11.5121 167.887 11.4249 167.509 11.4249C167.131 11.4249 166.792 11.5121 166.492 11.6865C166.191 11.8609 165.949 12.108 165.765 12.4278C165.591 12.7475 165.503 13.1351 165.503 13.5905C165.503 14.0363 165.591 14.4238 165.765 14.7533C165.949 15.073 166.191 15.3201 166.492 15.4946C166.792 15.669 167.131 15.7562 167.509 15.7562Z" fill="#7177F8"/>
<path d="M160.551 17.5005C159.925 17.5005 159.417 16.9929 159.417 16.3668V7.84952C159.417 7.22339 159.925 6.71582 160.551 6.71582V6.71582C161.177 6.71582 161.684 7.22339 161.684 7.84952V16.3668C161.684 16.9929 161.177 17.5005 160.551 17.5005V17.5005Z" fill="#7177F8"/>
<path d="M154.651 17.6166C153.808 17.6166 153.057 17.447 152.399 17.1079C151.74 16.7591 151.221 16.2794 150.843 15.669C150.475 15.0585 150.291 14.3657 150.291 13.5905C150.291 12.8057 150.475 12.1128 150.843 11.5121C151.221 10.9016 151.74 10.4268 152.399 10.0877C153.057 9.73887 153.808 9.56445 154.651 9.56445C155.475 9.56445 156.192 9.73887 156.803 10.0877C157.122 10.2651 157.397 10.4836 157.629 10.7432C157.993 11.1508 157.78 11.7566 157.299 12.0152V12.0152C156.798 12.2841 156.196 12.0531 155.719 11.7435C155.689 11.7235 155.657 11.7045 155.625 11.6865C155.325 11.5121 154.995 11.4249 154.637 11.4249C154.249 11.4249 153.9 11.5121 153.59 11.6865C153.28 11.8609 153.033 12.108 152.849 12.4278C152.675 12.7475 152.587 13.1351 152.587 13.5905C152.587 14.0459 152.675 14.4335 152.849 14.7533C153.033 15.073 153.28 15.3201 153.59 15.4946C153.9 15.669 154.249 15.7562 154.637 15.7562C154.995 15.7562 155.325 15.6738 155.625 15.5091C155.657 15.4913 155.688 15.4725 155.718 15.4527C156.198 15.1401 156.804 14.9036 157.307 15.1776V15.1776C157.784 15.4378 157.991 16.0406 157.629 16.4456C157.397 16.7047 157.122 16.9255 156.803 17.1079C156.192 17.447 155.475 17.6166 154.651 17.6166Z" fill="#7177F8"/>
<path d="M148.011 17.6171C147.624 17.6171 147.29 17.4863 147.009 17.2246C146.737 16.9533 146.602 16.6093 146.602 16.1927C146.602 15.776 146.737 15.4417 147.009 15.1898C147.29 14.9282 147.624 14.7974 148.011 14.7974C148.409 14.7974 148.743 14.9282 149.014 15.1898C149.286 15.4417 149.421 15.776 149.421 16.1927C149.421 16.6093 149.286 16.9533 149.014 17.2246C148.743 17.4863 148.409 17.6171 148.011 17.6171Z" fill="white"/>
<path d="M142.919 17.6795C141.503 17.6795 140.4 17.3218 139.609 16.6062C138.819 15.8758 138.424 14.795 138.424 13.3639V4.55372C138.424 3.59045 139.205 2.80957 140.168 2.80957V2.80957C141.132 2.80957 141.913 3.59045 141.913 4.55372V13.3192C141.913 13.826 142.047 14.2211 142.315 14.5043C142.583 14.7726 142.949 14.9068 143.411 14.9068V14.9068C144.161 14.9068 145.089 15.1651 145.357 15.8664L145.415 16.019C145.617 16.5489 145.437 17.1643 144.905 17.361C144.764 17.4131 144.617 17.4597 144.462 17.5007C143.97 17.6199 143.456 17.6795 142.919 17.6795ZM137.91 8.42214C137.169 8.42214 136.568 7.82147 136.568 7.08049V7.08049C136.568 6.33952 137.169 5.73884 137.91 5.73884H143.567C144.308 5.73884 144.909 6.33952 144.909 7.08049V7.08049C144.909 7.82147 144.308 8.42214 143.567 8.42214H137.91Z" fill="white"/>
<path d="M130.428 17.6799C129.131 17.6799 127.976 17.419 126.962 16.8973C125.948 16.3606 125.151 15.6227 124.569 14.6836C124.003 13.7444 123.72 12.6785 123.72 11.4859C123.72 10.2785 124.003 9.21259 124.569 8.28835C125.151 7.34919 125.948 6.61874 126.962 6.09698C127.976 5.56032 129.131 5.29199 130.428 5.29199C131.695 5.29199 132.798 5.56032 133.737 6.09698C134.229 6.36992 134.653 6.70609 135.009 7.10549C135.569 7.73246 135.241 8.66458 134.501 9.06237V9.06237C133.731 9.47609 132.804 9.12071 132.071 8.64432C132.024 8.61353 131.975 8.58431 131.926 8.55668C131.464 8.28835 130.957 8.15418 130.406 8.15418C129.809 8.15418 129.273 8.28835 128.796 8.55668C128.319 8.82501 127.938 9.20514 127.655 9.69708C127.387 10.189 127.253 10.7853 127.253 11.4859C127.253 12.1866 127.387 12.7829 127.655 13.2748C127.938 13.7668 128.319 14.1469 128.796 14.4152C129.273 14.6836 129.809 14.8177 130.406 14.8177C130.957 14.8177 131.464 14.691 131.926 14.4376C131.975 14.4103 132.022 14.3813 132.069 14.3508C132.807 13.8698 133.74 13.506 134.513 13.9276V13.9276C135.247 14.3279 135.566 15.2552 135.009 15.8783C134.652 16.2771 134.228 16.6167 133.737 16.8973C132.798 17.419 131.695 17.6799 130.428 17.6799Z" fill="white"/>
<path d="M116.478 17.6799C115.106 17.6799 113.899 17.4116 112.855 16.8749C111.827 16.3383 111.029 15.6078 110.463 14.6836C109.896 13.7444 109.613 12.6785 109.613 11.4859C109.613 10.2785 109.889 9.21259 110.44 8.28835C111.007 7.34919 111.774 6.61874 112.743 6.09698C113.712 5.56032 114.808 5.29199 116.03 5.29199C117.208 5.29199 118.266 5.54541 119.206 6.05226C120.16 6.5442 120.912 7.25975 121.464 8.1989C122.016 9.12315 122.291 10.2337 122.291 11.5307C122.291 11.6648 122.284 11.8214 122.269 12.0002V12.0002C122.245 12.2669 122.02 12.4698 121.753 12.4698H113.47C112.908 12.4698 112.453 12.0143 112.453 11.4524V11.4524C112.453 10.8905 112.908 10.435 113.47 10.435H119.286C119.542 10.435 119.616 10.7834 119.383 10.8883V10.8883C119.227 10.9589 119.048 10.8439 119.034 10.6724C118.993 10.198 118.872 9.77597 118.669 9.40639C118.416 8.94426 118.065 8.58649 117.618 8.33307C117.171 8.06474 116.649 7.93057 116.053 7.93057C115.456 7.93057 114.927 8.06474 114.465 8.33307C114.018 8.58649 113.668 8.95172 113.414 9.42875C113.161 9.89087 113.034 10.4424 113.034 11.0835V11.6201C113.034 12.276 113.176 12.8574 113.459 13.3643C113.757 13.8562 114.167 14.2363 114.689 14.5047C115.225 14.7581 115.851 14.8848 116.567 14.8848C117.208 14.8848 117.767 14.7879 118.244 14.5941C118.293 14.575 118.341 14.555 118.388 14.5341C119.119 14.2122 120.031 14.2045 120.572 14.7913V14.7913C121.066 15.3273 121.084 16.1695 120.484 16.584C120.144 16.8191 119.77 17.0204 119.362 17.188C118.527 17.5159 117.566 17.6799 116.478 17.6799Z" fill="white"/>
<path d="M102.271 5.29199C103.226 5.29199 104.075 5.48579 104.821 5.87337C105.581 6.24605 106.177 6.82744 106.609 7.61752C107.042 8.3927 107.258 9.39148 107.258 10.6139V15.7569C107.258 16.7201 106.477 17.501 105.514 17.501V17.501C104.551 17.501 103.77 16.7201 103.77 15.7569V11.1505C103.77 10.1816 103.553 9.46602 103.121 9.00389C102.704 8.54177 102.107 8.31071 101.332 8.31071C100.781 8.31071 100.281 8.42996 99.8341 8.66848C99.4018 8.89209 99.059 9.24241 98.8055 9.71944C98.567 10.1965 98.4478 10.8077 98.4478 11.553V15.7569C98.4478 16.7201 97.6669 17.501 96.7036 17.501V17.501C95.7404 17.501 94.9595 16.7201 94.9595 15.7569V7.13676C94.9595 6.21672 95.7053 5.47088 96.6254 5.47088H97.5508C97.9598 5.47088 98.2912 5.80236 98.2912 6.21127V7.78571C98.2912 8.07793 97.9084 8.18732 97.754 7.93921V7.93921C97.699 7.85087 97.6949 7.73953 97.7472 7.64962C98.1744 6.91583 98.7657 6.34611 99.5211 5.94046C100.326 5.50815 101.243 5.29199 102.271 5.29199Z" fill="white"/>
<path d="M86.811 5.29199C87.7651 5.29199 88.6148 5.48579 89.3602 5.87337C90.1204 6.24605 90.7167 6.82744 91.149 7.61752C91.5813 8.3927 91.7975 9.39148 91.7975 10.6139V15.7569C91.7975 16.7201 91.0166 17.501 90.0533 17.501V17.501C89.0901 17.501 88.3092 16.7201 88.3092 15.7569V11.1505C88.3092 10.1816 88.093 9.46602 87.6607 9.00389C87.2433 8.54177 86.647 8.31071 85.8719 8.31071C85.3203 8.31071 84.8209 8.42996 84.3737 8.66848C83.9414 8.89209 83.5985 9.24241 83.3451 9.71944C83.1066 10.1965 82.9873 10.8077 82.9873 11.553V15.7569C82.9873 16.7201 82.2064 17.501 81.2432 17.501V17.501C80.2799 17.501 79.499 16.7201 79.499 15.7569V7.13676C79.499 6.21672 80.2449 5.47088 81.1649 5.47088H82.0904C82.4993 5.47088 82.8308 5.80236 82.8308 6.21127V7.78571C82.8308 8.07793 82.4479 8.18732 82.2935 7.93921V7.93921C82.2386 7.85087 82.2344 7.73953 82.2868 7.64962C82.714 6.91583 83.3053 6.34611 84.0606 5.94046C84.8656 5.50815 85.7824 5.29199 86.811 5.29199Z" fill="white"/>
<path d="M70.571 17.6799C69.2889 17.6799 68.1485 17.4116 67.1498 16.8749C66.1659 16.3383 65.3832 15.6078 64.8019 14.6836C64.2354 13.7444 63.9521 12.6785 63.9521 11.4859C63.9521 10.2785 64.2354 9.21259 64.8019 8.28835C65.3832 7.34919 66.1659 6.61874 67.1498 6.09698C68.1485 5.56032 69.2889 5.29199 70.571 5.29199C71.8381 5.29199 72.971 5.56032 73.9698 6.09698C74.9686 6.61874 75.7512 7.34174 76.3177 8.26599C76.8842 9.19023 77.1674 10.2636 77.1674 11.4859C77.1674 12.6785 76.8842 13.7444 76.3177 14.6836C75.7512 15.6078 74.9686 16.3383 73.9698 16.8749C72.971 17.4116 71.8381 17.6799 70.571 17.6799ZM70.571 14.8177C71.1523 14.8177 71.6741 14.6836 72.1362 14.4152C72.5983 14.1469 72.9636 13.7668 73.2319 13.2748C73.5002 12.768 73.6344 12.1717 73.6344 11.4859C73.6344 10.7853 73.5002 10.189 73.2319 9.69708C72.9636 9.20514 72.5983 8.82501 72.1362 8.55668C71.6741 8.28835 71.1523 8.15418 70.571 8.15418C69.9896 8.15418 69.4678 8.28835 69.0057 8.55668C68.5436 8.82501 68.1709 9.20514 67.8877 9.69708C67.6193 10.189 67.4852 10.7853 67.4852 11.4859C67.4852 12.1717 67.6193 12.768 67.8877 13.2748C68.1709 13.7668 68.5436 14.1469 69.0057 14.4152C69.4678 14.6836 69.9896 14.8177 70.571 14.8177Z" fill="white"/>
<path d="M57.6018 17.6799C56.3049 17.6799 55.1496 17.419 54.1359 16.8973C53.1222 16.3606 52.3247 15.6227 51.7433 14.6836C51.1768 13.7444 50.8936 12.6785 50.8936 11.4859C50.8936 10.2785 51.1768 9.21259 51.7433 8.28835C52.3247 7.34919 53.1222 6.61874 54.1359 6.09698C55.1496 5.56032 56.3049 5.29199 57.6018 5.29199C58.8689 5.29199 59.9721 5.56032 60.9112 6.09698C61.4025 6.36992 61.8265 6.70609 62.1832 7.10549C62.743 7.73246 62.4153 8.66458 61.6748 9.06237V9.06237C60.9046 9.47609 59.9778 9.12071 59.2448 8.64433C59.1974 8.61353 59.1491 8.58431 59.1 8.55668C58.6379 8.28835 58.131 8.15418 57.5794 8.15418C56.9832 8.15418 56.4465 8.28835 55.9695 8.55668C55.4924 8.82501 55.1123 9.20514 54.8291 9.69708C54.5607 10.189 54.4266 10.7853 54.4266 11.4859C54.4266 12.1866 54.5607 12.7829 54.8291 13.2748C55.1123 13.7668 55.4924 14.1469 55.9695 14.4152C56.4465 14.6836 56.9832 14.8177 57.5794 14.8177C58.131 14.8177 58.6379 14.691 59.1 14.4376C59.1485 14.4103 59.1963 14.3813 59.2431 14.3508C59.9806 13.8698 60.9139 13.506 61.6869 13.9276V13.9276C62.4207 14.3279 62.7397 15.2552 62.1825 15.8783C61.826 16.2771 61.4022 16.6167 60.9112 16.8973C59.9721 17.419 58.8689 17.6799 57.6018 17.6799Z" fill="white"/>
<path d="M43.4604 17.6798C42.4019 17.6798 41.4926 17.4562 40.7323 17.009C39.9721 16.5618 39.3907 15.8835 38.9882 14.9742C38.5857 14.0499 38.3844 12.8871 38.3844 11.4859C38.3844 10.0697 38.5931 8.90691 39.0106 7.99757C39.4429 7.08823 40.0392 6.40995 40.7994 5.96273C41.5597 5.51552 42.4467 5.29191 43.4604 5.29191C44.5933 5.29191 45.607 5.54533 46.5014 6.05218C47.4108 6.55902 48.1263 7.27457 48.6481 8.19882C49.1847 9.12307 49.4531 10.2188 49.4531 11.4859C49.4531 12.7381 49.1847 13.8263 48.6481 14.7505C48.1263 15.6748 47.4108 16.3978 46.5014 16.9196C45.607 17.4264 44.5933 17.6798 43.4604 17.6798ZM38.0155 17.5009C37.0955 17.5009 36.3496 16.7551 36.3496 15.835V2.65333C36.3496 1.69006 37.1305 0.90918 38.0938 0.90918V0.90918C39.057 0.90918 39.8379 1.69006 39.8379 2.65333V7.90813L39.6143 11.4635L39.6814 15.0412V15.835C39.6814 16.7551 38.9355 17.5009 38.0155 17.5009V17.5009ZM42.8566 14.8176C43.438 14.8176 43.9523 14.6835 44.3995 14.4151C44.8616 14.1468 45.2269 13.7667 45.4952 13.2747C45.7784 12.7679 45.9201 12.1716 45.9201 11.4859C45.9201 10.7852 45.7784 10.1889 45.4952 9.697C45.2269 9.20506 44.8616 8.82492 44.3995 8.55659C43.9523 8.28826 43.438 8.1541 42.8566 8.1541C42.2752 8.1541 41.7535 8.28826 41.2914 8.55659C40.8292 8.82492 40.464 9.20506 40.1957 9.697C39.9273 10.1889 39.7932 10.7852 39.7932 11.4859C39.7932 12.1716 39.9273 12.7679 40.1957 13.2747C40.464 13.7667 40.8292 14.1468 41.2914 14.4151C41.7535 14.6835 42.2752 14.8176 42.8566 14.8176Z" fill="white"/>
<path d="M28.2134 17.6799C26.842 17.6799 25.6345 17.4116 24.591 16.8749C23.5624 16.3383 22.7648 15.6078 22.1983 14.6836C21.6319 13.7444 21.3486 12.6785 21.3486 11.4859C21.3486 10.2785 21.6244 9.21259 22.176 8.28835C22.7425 7.34919 23.5102 6.61874 24.4792 6.09698C25.4481 5.56032 26.5438 5.29199 27.7662 5.29199C28.9439 5.29199 30.0023 5.54541 30.9414 6.05226C31.8955 6.5442 32.6483 7.25975 33.1999 8.1989C33.7515 9.12315 34.0272 10.2337 34.0272 11.5307C34.0272 11.6648 34.0198 11.8214 34.0049 12.0002V12.0002C33.9806 12.2669 33.7562 12.4698 33.4885 12.4698H25.2059C24.644 12.4698 24.1885 12.0143 24.1885 11.4524V11.4524C24.1885 10.8905 24.644 10.435 25.2059 10.435H31.022C31.2775 10.435 31.3522 10.7834 31.1193 10.8883V10.8883C30.9624 10.9589 30.7843 10.8439 30.7697 10.6724C30.7291 10.198 30.6075 9.77597 30.4048 9.40639C30.1514 8.94426 29.801 8.58649 29.3538 8.33307C28.9066 8.06474 28.3848 7.93057 27.7886 7.93057C27.1923 7.93057 26.6631 8.06474 26.2009 8.33307C25.7537 8.58649 25.4034 8.95172 25.15 9.42875C24.8966 9.89087 24.7698 10.4424 24.7698 11.0835V11.6201C24.7698 12.276 24.9115 12.8574 25.1947 13.3643C25.4928 13.8562 25.9028 14.2363 26.4245 14.5047C26.9612 14.7581 27.5873 14.8848 28.3029 14.8848C28.9439 14.8848 29.5029 14.7879 29.9799 14.5941C30.0284 14.575 30.0764 14.555 30.1239 14.5341C30.8543 14.2122 31.7665 14.2045 32.3077 14.7913V14.7913C32.802 15.3273 32.82 16.1695 32.2202 16.584C31.8799 16.8191 31.5058 17.0204 31.098 17.188C30.2632 17.5159 29.3016 17.6799 28.2134 17.6799Z" fill="white"/>
<path d="M6.06618 17.5008C5.0541 17.5008 4.15068 16.8663 3.80737 15.9142L0.785128 7.53292C0.423233 6.52931 1.16684 5.4707 2.2337 5.4707V5.4707C2.8892 5.4707 3.47285 5.88568 3.68814 6.50482L6.67343 15.0898C6.79827 15.4489 6.5317 15.8238 6.15159 15.8238V15.8238C5.76835 15.8238 5.50152 15.4431 5.63224 15.0828L8.61918 6.85096C8.91982 6.02243 9.70693 5.4707 10.5883 5.4707V5.4707C11.4771 5.4707 12.2691 6.03153 12.5642 6.86985L15.4574 15.0878C15.5839 15.4472 15.3172 15.8238 14.9362 15.8238V15.8238C14.5539 15.8238 14.2871 15.4447 14.4161 15.0848L17.519 6.43053C17.7254 5.85479 18.2711 5.4707 18.8828 5.4707V5.4707C19.8875 5.4707 20.5872 6.46855 20.2448 7.41319L17.1632 15.9153C16.8183 16.867 15.9144 17.5008 14.9021 17.5008V17.5008C13.8881 17.5008 12.983 16.8648 12.6393 15.9108L10.1877 9.10459C10.1034 8.87047 10.2769 8.62358 10.5257 8.62358V8.62358C10.7762 8.62358 10.9498 8.87358 10.8623 9.10834L8.3161 15.9384C7.96588 16.8779 7.0688 17.5008 6.06618 17.5008V17.5008Z" fill="white"/>
</svg>
