<svg width="22" height="23" viewBox="0 0 22 23" fill="none" xmlns="http://www.w3.org/2000/svg">
<mask id="mask0_856_77" style="mask-type:luminance" maskUnits="userSpaceOnUse" x="2" y="2" width="18" height="18">
<path d="M19.7846 11.1732C19.7846 6.38878 15.8329 2.51025 10.9582 2.51025C6.08354 2.51025 2.13184 6.38878 2.13184 11.1732C2.13184 15.9576 6.08354 19.8361 10.9582 19.8361C15.8329 19.8361 19.7846 15.9576 19.7846 11.1732Z" fill="white"/>
</mask>
<g mask="url(#mask0_856_77)">
<path d="M19.7846 11.1732C19.7846 15.9576 15.8329 19.8361 10.9582 19.8361C6.08353 19.8361 2.13184 15.9576 2.13184 11.1732C2.13184 6.38879 6.08353 2.51025 10.9582 2.51025C15.8329 2.51025 19.7846 6.38879 19.7846 11.1732Z" fill="white"/>
<path d="M18.9903 19.8361C18.9903 23.3127 15.3943 26.1311 10.9583 26.1311C6.52233 26.1311 2.92627 23.3127 2.92627 19.8361C2.92627 16.3594 6.52233 13.541 10.9583 13.541C15.3943 13.541 18.9903 16.3594 18.9903 19.8361Z" fill="#242F3D"/>
<path d="M15.1359 8.45884C15.1359 10.7234 13.2654 12.5592 10.9581 12.5592C8.65076 12.5592 6.78027 10.7234 6.78027 8.45884C6.78027 6.19421 8.65076 4.3584 10.9581 4.3584C13.2654 4.3584 15.1359 6.19421 15.1359 8.45884Z" fill="#242F3D"/>
</g>
<path d="M20.1624 11.1734C20.1624 6.18448 16.0417 2.14014 10.9586 2.14014C5.87554 2.14014 1.75488 6.18448 1.75488 11.1734C1.75488 16.1624 5.87554 20.2067 10.9586 20.2067C16.0417 20.2067 20.1624 16.1624 20.1624 11.1734Z" stroke="white" stroke-width="2"/>
</svg>
